<svg width="24" height="24" viewBox="0 0 24 24" fill="none" xmlns="http://www.w3.org/2000/svg">
<path d="M8.0197 11C7.8222 11 7.62913 11.0586 7.46491 11.1685C7.3007 11.2784 7.1727 11.4346 7.09712 11.6173C7.02154 11.8 7.00177 12.0011 7.0403 12.1951C7.07883 12.3891 7.17394 12.5673 7.31359 12.7071C7.45325 12.847 7.63118 12.9422 7.82489 12.9808C8.01859 13.0194 8.21938 12.9996 8.40185 12.9239C8.58432 12.8482 8.74027 12.72 8.85 12.5556C8.95973 12.3911 9.01829 12.1978 9.01829 12C9.01829 11.7348 8.91309 11.4804 8.72581 11.2929C8.53854 11.1054 8.28455 11 8.0197 11ZM12.0141 11C11.8166 11 11.6235 11.0586 11.4593 11.1685C11.2951 11.2784 11.1671 11.4346 11.0915 11.6173C11.0159 11.8 10.9961 12.0011 11.0347 12.1951C11.0732 12.3891 11.1683 12.5673 11.308 12.7071C11.4476 12.847 11.6255 12.9422 11.8193 12.9808C12.013 13.0194 12.2137 12.9996 12.3962 12.9239C12.5787 12.8482 12.7346 12.72 12.8444 12.5556C12.9541 12.3911 13.0127 12.1978 13.0127 12C13.0127 11.7348 12.9075 11.4804 12.7202 11.2929C12.5329 11.1054 12.2789 11 12.0141 11ZM16.0084 11C15.8109 11 15.6179 11.0586 15.4537 11.1685C15.2894 11.2784 15.1614 11.4346 15.0859 11.6173C15.0103 11.8 14.9905 12.0011 15.029 12.1951C15.0676 12.3891 15.1627 12.5673 15.3023 12.7071C15.442 12.847 15.6199 12.9422 15.8136 12.9808C16.0073 13.0194 16.2081 12.9996 16.3906 12.9239C16.5731 12.8482 16.729 12.72 16.8387 12.5556C16.9485 12.3911 17.007 12.1978 17.007 12C17.007 11.7348 16.9018 11.4804 16.7146 11.2929C16.5273 11.1054 16.2733 11 16.0084 11ZM12.0141 2C10.7027 2 9.40417 2.25866 8.19262 2.7612C6.98108 3.26375 5.88024 4.00035 4.95296 4.92893C3.08023 6.8043 2.02815 9.34784 2.02815 12C2.01942 14.3091 2.81783 16.5485 4.28497 18.33L2.28778 20.33C2.14922 20.4706 2.05535 20.6492 2.01803 20.8432C1.98071 21.0372 2.0016 21.2379 2.07808 21.42C2.16102 21.5999 2.29547 21.7511 2.46438 21.8544C2.63328 21.9577 2.82902 22.0083 3.02674 22H12.0141C14.6625 22 17.2025 20.9464 19.0752 19.0711C20.9479 17.1957 22 14.6522 22 12C22 9.34784 20.9479 6.8043 19.0752 4.92893C17.2025 3.05357 14.6625 2 12.0141 2ZM12.0141 20H5.43335L6.36204 19.07C6.45639 18.9774 6.53146 18.8669 6.58288 18.7451C6.63431 18.6232 6.66107 18.4923 6.66162 18.36C6.65786 18.0962 6.55019 17.8446 6.36204 17.66C5.05447 16.352 4.2402 14.6305 4.05798 12.7888C3.87575 10.947 4.33684 9.09901 5.36267 7.55952C6.38851 6.02004 7.91564 4.88436 9.68387 4.34597C11.4521 3.80759 13.352 3.8998 15.06 4.60691C16.7679 5.31402 18.1782 6.59227 19.0506 8.22389C19.923 9.85551 20.2034 11.7395 19.8442 13.555C19.4849 15.3705 18.5082 17.005 17.0805 18.1802C15.6527 19.3554 13.8622 19.9985 12.0141 20Z" fill="#80828A"/>
</svg>
