<svg width="16" height="16" viewBox="0 0 16 16" fill="none" xmlns="http://www.w3.org/2000/svg">
<path fill-rule="evenodd" clip-rule="evenodd" d="M12.6663 6.66699C12.6663 3.96088 11.1741 2.08266 9.24326 1.5188C9.17335 1.3379 9.06285 1.16973 8.91266 1.02861C8.39949 0.546452 7.59986 0.546452 7.08668 1.02861C6.93682 1.16942 6.82648 1.33716 6.75655 1.51761C4.82324 2.07901 3.33301 3.95312 3.33301 6.66699C3.33301 8.42292 2.979 9.40684 2.32365 10.1199C2.21408 10.2391 1.91724 10.5122 1.71614 10.6972L1.71611 10.6972L1.7161 10.6972L1.7161 10.6972C1.62096 10.7847 1.54727 10.8525 1.52498 10.875L1.33301 11.0696V13.3431H5.39166C5.5289 14.0511 5.91307 14.5248 6.60781 14.9487C7.46244 15.4703 8.53691 15.4703 9.39154 14.9487C10.0047 14.5746 10.4158 13.9996 10.5826 13.3431H14.6663V11.0696L14.4744 10.875C14.4542 10.8545 14.3835 10.7892 14.291 10.704L14.291 10.704L14.2909 10.7039C14.0904 10.5189 13.7878 10.2398 13.6766 10.1183C13.0208 9.40192 12.6663 8.41675 12.6663 6.66699ZM9.15749 13.3431H6.78542C6.87961 13.5183 7.04015 13.6506 7.30235 13.8106C7.73052 14.0719 8.26883 14.0719 8.697 13.8106C8.89527 13.6896 9.0502 13.5295 9.15749 13.3431ZM12.6931 11.0186C12.8334 11.1718 13.1341 11.452 13.333 11.6349V12.0097H2.66634V11.6352C2.86372 11.4544 3.1653 11.1745 3.30533 11.0221C4.19582 10.0533 4.66634 8.74553 4.66634 6.66699C4.66634 4.14692 6.22152 2.67525 7.99967 2.67525C9.77281 2.67525 11.333 4.15452 11.333 6.66699C11.333 8.73886 11.8037 10.047 12.6931 11.0186Z" fill="#828282"/>
<circle cx="11.7492" cy="3.41714" r="2.56714" fill="#00A8E1" stroke="white" stroke-width="0.7"/>
</svg>
