<svg width="25" height="25" viewBox="0 0 25 25" fill="none" xmlns="http://www.w3.org/2000/svg">
<path d="M21.292 6.58985C21.292 8.54666 19.7002 10.1385 17.7434 10.1385C15.7866 10.1385 14.1948 8.54666 14.1948 6.58985C14.1948 4.63304 15.7866 3.04124 17.7434 3.04124C19.7002 3.04124 21.292 4.63304 21.292 6.58985ZM19.2642 11.9533C18.7573 12.0851 18.2503 12.1662 17.7434 12.1662C16.2653 12.1636 14.8484 11.5752 13.8032 10.53C12.758 9.4848 12.1697 8.06798 12.167 6.58985C12.167 5.09943 12.755 3.75096 13.6878 2.74721C13.5038 2.52166 13.2718 2.34 13.0087 2.21547C12.7456 2.09094 12.4581 2.02667 12.167 2.02735C11.0517 2.02735 10.1392 2.93985 10.1392 4.05513V4.34915C7.12796 5.24138 5.06977 8.00929 5.06977 11.1524V17.2357L3.04199 19.2635V20.2774H21.292V19.2635L19.2642 17.2357V11.9533ZM12.167 23.319C13.2924 23.319 14.1948 22.4167 14.1948 21.2912H10.1392C10.1392 21.829 10.3529 22.3448 10.7331 22.7251C11.1134 23.1054 11.6292 23.319 12.167 23.319Z" fill="white"/>
<circle cx="17.333" cy="6.66699" r="4" fill="#A90003"/>
</svg>
